<svg width="162" height="240" viewBox="0 0 162 240" fill="none" xmlns="http://www.w3.org/2000/svg">
<path d="M161.126 218.469H161.105C160.878 224.668 158.682 229.918 154.922 233.678C151.161 237.439 145.91 239.634 139.709 239.86V239.881L138.732 239.88C138.701 239.88 138.669 239.882 138.638 239.882V239.88L6.92285 239.872V239.015L6.42578 238.684L6.92285 237.938V237.73H7.06055L13.915 227.447L13.3477 227.021L14.6328 225.309L22.4219 231.15L28.4033 207.227L28.6455 207.287L29.5273 205.964L39.585 212.669L42.5205 193.68L42.1436 193.114L42.6611 192.769L42.7148 192.427L43.0879 192.484L60.4658 180.898V174.87L59.7822 174.393L74.6006 153.222V130.645H74.8145L83.1475 120.228L87.2363 103.874V103.873L107.67 91.6123L111.866 68.5342L124.074 58.3613V40.9365L123.86 40.6924L139.907 26.6504L141.851 14.9912L143.169 15.2109L158.984 6.4248L161.126 6.42383V218.469ZM143.618 17.4111L142.037 26.8926L142.404 27.3115L141.894 27.7578L141.821 28.1934L141.464 28.1338L126.216 41.4756V59.9678H125.492L113.834 69.6816L109.69 92.4766L109.506 92.4424L109.756 92.8594L89.0986 105.252L85.0312 121.526L84.8809 121.488L76.7422 131.663V154.203H76.5283L62.6074 174.089V182.046L44.6338 194.027L41.5508 213.979L42.3779 214.531L41.1904 216.313L41.1885 216.312L39.0732 215.986L39.2246 215.003L30.1748 208.97L24.0566 233.446L22.2529 232.996L21.915 233.447L15.6318 228.734L9.63477 237.73L138.644 237.738C144.823 237.737 149.889 235.683 153.408 232.164C156.928 228.644 158.983 223.575 158.983 217.394H158.984V8.87402L143.618 17.4111ZM150.878 1.91504L134.719 9.99414L132.973 20.4678L133.34 20.8867L132.829 21.333L132.757 21.7686L132.399 21.709L117.151 35.0508V53.543H116.428L104.77 63.2568L100.626 86.0518L100.441 86.0176L100.691 86.4346L80.0342 98.8271L75.9668 115.102L75.8174 115.063L67.6777 125.238V147.778H67.4639L53.543 167.664V175.621L35.6602 187.542L34.3164 202.901L35.6055 203.933L34.2676 205.604L25.2168 198.364L17.8994 218.49L18.4268 218.89L17.1338 220.597L15.1211 219.865L15.3467 219.243L13.7188 218.01L2.1416 233.447V233.457H0V21.4121H0.0205078C0.247786 15.2127 2.44395 9.9643 6.2041 6.2041C9.96526 2.44294 15.2154 0.245855 21.417 0.0195312V0H149.92L150.878 1.91504ZM22.4883 2.14258C16.3065 2.14262 11.2379 4.19768 7.71777 7.71777C4.19772 11.2379 2.14262 16.3066 2.14258 22.4883H2.1416V229.878L12.0117 216.716L11.9258 216.651L13.2197 214.944L16.1133 217.137L23.6885 196.306L24.041 196.434L24.8965 195.365L32.3066 201.294L33.5254 187.359L33.0791 186.689L33.6162 186.331L33.6328 186.143L33.8682 186.163L51.4014 174.474V168.445L50.7178 167.968L65.5361 146.797V124.22H65.751L74.084 113.801L78.1729 97.4482L98.6055 85.1875L102.802 62.1104L115.01 51.9365V34.5117L114.796 34.2676L130.843 20.2256L132.786 8.56641L145.637 2.1416H22.4883V2.14258ZM106.306 172.308C108.365 172.597 110.263 173.133 111.989 173.925C114.746 175.182 116.931 176.953 118.498 179.246C120.071 181.548 120.872 184.206 120.921 187.18L120.939 188.269H109.412L109.316 187.303C109.161 185.739 108.516 184.595 107.396 183.771C106.255 182.93 104.624 182.45 102.396 182.45C100.878 182.45 99.6638 182.665 98.7188 183.054L98.707 183.059C97.7443 183.441 97.0676 183.949 96.6152 184.55C96.1779 185.151 95.96 185.825 95.96 186.604V186.624L95.959 186.644C95.9353 187.297 96.0713 187.812 96.3242 188.23C96.6279 188.706 97.0511 189.137 97.6143 189.515L97.8477 189.66C98.401 189.993 99.0393 190.298 99.7656 190.569H99.7666C100.406 190.797 101.081 191.001 101.792 191.182L102.516 191.354L102.522 191.356L102.53 191.358L106.713 192.358H106.714C108.813 192.828 110.754 193.458 112.529 194.251C114.321 195.051 115.893 196.044 117.231 197.235C118.587 198.442 119.641 199.87 120.388 201.509L120.528 201.824C121.208 203.411 121.545 205.187 121.561 207.131V207.146C121.544 210.192 120.762 212.888 119.181 215.185C117.618 217.461 115.376 219.2 112.514 220.422L112.511 220.424C110.664 221.206 108.592 221.726 106.306 221.996V228.093H97.7383V221.905C95.6967 221.614 93.8089 221.117 92.084 220.404L92.082 220.403C89.1277 219.176 86.7813 217.34 85.0869 214.89L85.082 214.883C83.3917 212.397 82.5358 209.362 82.4561 205.84L82.4307 204.744H94.0879L94.1553 205.743C94.2503 207.14 94.6433 208.237 95.2832 209.089C95.9602 209.955 96.8691 210.627 98.0439 211.095C99.2531 211.555 100.646 211.795 102.236 211.795L102.813 211.784C104.133 211.734 105.256 211.512 106.2 211.14L106.204 211.138C107.311 210.706 108.107 210.13 108.65 209.441C109.183 208.767 109.447 208.005 109.447 207.116C109.447 206.297 109.211 205.672 108.776 205.174L108.768 205.164C108.3 204.615 107.56 204.091 106.474 203.631L106.469 203.629C105.369 203.158 103.992 202.718 102.327 202.316L102.317 202.314L97.2295 201.037V201.036C93.1763 200.049 89.8912 198.487 87.4443 196.302C84.9036 194.032 83.6712 190.976 83.6875 187.261C83.6733 184.23 84.4857 181.537 86.1484 179.226L86.1514 179.221C87.8114 176.936 90.0763 175.173 92.9043 173.92C94.4135 173.251 96.0264 172.765 97.7383 172.455V165.982H106.306V172.308ZM42.834 143.495H17.1338V141.354H42.834V143.495ZM143.494 143.494H92.0928V141.353H143.494V143.494ZM55.6846 124.22H17.1338V122.078H55.6846V124.22ZM143.494 124.219H104.943V122.077H143.494V124.219ZM68.5352 104.944H17.1338V102.803H68.5352V104.944ZM143.494 104.943H117.794V102.802H143.494V104.943ZM44.9756 25.9805H47.1182V19.2754H53.543V26.2217C55.343 26.4656 56.9361 26.8943 58.3213 27.5088C60.6181 28.5279 62.3449 29.9429 63.501 31.7529C64.657 33.5478 65.2353 35.6166 65.2354 37.959C65.2353 39.7843 64.8698 41.3893 64.1396 42.7734C63.4095 44.1422 62.4055 45.2682 61.1279 46.1504C59.8656 47.0172 58.4203 47.633 56.793 47.998V48.4541C58.5725 48.5302 60.2386 49.0322 61.79 49.96C63.3567 50.8878 64.6271 52.1892 65.6006 53.8623C66.5739 55.5201 67.0605 57.4975 67.0605 59.7939C67.0605 62.2733 66.444 64.4866 65.2119 66.4336C63.995 68.3653 62.1928 69.8949 59.8047 71.0205C58.0257 71.8589 55.9381 72.3838 53.543 72.5977V79.2432H47.1182V72.709H44.9756V79.2432H38.5508V72.8184H25.7002V66.3936H31.0098V32.126H25.7002V25.7012H38.5508V19.2754H44.9756V25.9805ZM40.8896 64.6318H48.9443C51.6972 64.6318 53.7053 64.1061 54.9678 63.0566C56.23 61.9919 56.8613 60.5777 56.8613 58.8135C56.8613 57.5206 56.5494 56.3793 55.9258 55.3906C55.3022 54.4022 54.4125 53.6262 53.2568 53.0635C52.1161 52.5008 50.7537 52.2188 49.1719 52.2188H40.8896V64.6318ZM40.8896 45.5342H48.2139C49.5675 45.5342 50.7698 45.2986 51.8193 44.8271C52.884 44.3404 53.7207 43.6556 54.3291 42.7734C54.9528 41.8912 55.2646 40.8337 55.2646 39.6016C55.2646 37.9133 54.6634 36.5519 53.4619 35.5176C52.2755 34.4834 50.5867 33.9658 48.3965 33.9658H40.8896V45.5342Z" fill="black"/>
</svg>
